<?xml version="1.0" encoding="UTF-8" standalone="no"?>
<!-- Created with Inkscape (http://www.inkscape.org/) -->

<svg
   width="79.830795"
   height="39.568485"
   preserveAspectRatio="none"
   viewBox="0 0 21.121897 10.469161"
   version="1.1"
   id="svg2836"
   inkscape:export-filename="border_dark_3.svg"
   inkscape:export-xdpi="96"
   inkscape:export-ydpi="96"
   sodipodi:docname="header_element_4 .svg"
   inkscape:version="1.2.2 (b0a8486541, 2022-12-01)"
   xmlns:inkscape="http://www.inkscape.org/namespaces/inkscape"
   xmlns:sodipodi="http://sodipodi.sourceforge.net/DTD/sodipodi-0.dtd"
   xmlns="http://www.w3.org/2000/svg"
   xmlns:svg="http://www.w3.org/2000/svg">
  <sodipodi:namedview
     id="namedview2838"
     pagecolor="#ffffff"
     bordercolor="#000000"
     borderopacity="0.25"
     inkscape:showpageshadow="2"
     inkscape:pageopacity="0.0"
     inkscape:pagecheckerboard="0"
     inkscape:deskcolor="#d1d1d1"
     inkscape:document-units="mm"
     showgrid="false"
     inkscape:zoom="16.998453"
     inkscape:cx="39.915398"
     inkscape:cy="19.766505"
     inkscape:window-width="1920"
     inkscape:window-height="1011"
     inkscape:window-x="0"
     inkscape:window-y="0"
     inkscape:window-maximized="1"
     inkscape:current-layer="layer1" />
  <defs
     id="defs2833" />
  <g
     inkscape:label="Layer 1"
     inkscape:groupmode="layer"
     id="layer1"
     transform="translate(-0.04402209,-0.07453317)">
    <path
       style="fill:none;stroke:#444444;stroke-width:0.396875;stroke-linecap:round;stroke-linejoin:round;stroke-dasharray:none;stroke-opacity:1"
       d="M 3.5750469,0.29103144 C 2.457917,0.30639091 0.35397431,0.79431599 0.24245958,2.3052046 c 0.0297612,2.0541752 -0.0213215,4.1586676 0.0203804,6.0614858 0.005806,1.2138174 0.97455502,2.0190416 2.56004572,1.9769936 4.8465266,-0.005 11.1282323,-0.07596 14.8356643,-0.166625 1.914359,0.0116 2.971776,0.361991 3.211383,-2.3265578 0.09585,-0.5668447 0.127292,-2.3838426 0.0662,-4.9867761 C 20.846603,1.4580189 20.535533,0.40541784 18.23328,0.27297064 15.516441,0.44353577 7.5654476,0.55534601 3.5750469,0.29103144 Z"
       id="path3322"
       sodipodi:nodetypes="ccccccccc" />
    <path
       style="fill:none;stroke:#444444;stroke-width:0.396875;stroke-linecap:round;stroke-linejoin:round;stroke-dasharray:none;stroke-opacity:1"
       d="M 2.2098696,10.319423 C 5.7888487,9.5717038 9.8586718,9.4487184 14.629712,10.218224"
       id="path5342"
       sodipodi:nodetypes="cc" />
    <path
       style="fill:none;stroke:#444444;stroke-width:0.396875;stroke-linecap:round;stroke-linejoin:round;stroke-dasharray:none;stroke-opacity:1"
       d="m 17.242062,0.34480846 c 3.408304,0.54016268 3.415743,2.90676994 3.710412,5.01890044"
       id="path5344"
       sodipodi:nodetypes="cc" />
    <path
       style="fill:none;stroke:#444444;stroke-width:0.396875;stroke-linecap:round;stroke-linejoin:round;stroke-dasharray:none;stroke-opacity:1"
       d="m 14.613742,0.39529382 c -1.72735,0.41489792 -3.122732,0.2555645 -4.497656,0.0608447"
       id="path5346"
       sodipodi:nodetypes="cc" />
    <path
       style="fill:none;stroke:#444444;stroke-width:0.396875;stroke-linecap:round;stroke-linejoin:round;stroke-dasharray:none;stroke-opacity:1"
       d="M 5.2490532,0.38107034 C 4.6038185,0.44472006 3.9314856,0.4759488 3.1086243,0.32708209"
       id="path5348"
       sodipodi:nodetypes="cc" />
    <path
       style="fill:none;stroke:#444444;stroke-width:0.396875;stroke-linecap:round;stroke-linejoin:round;stroke-dasharray:none;stroke-opacity:1"
       d="M 0.25784575,8.0391477 C 0.3329855,6.8568687 0.43105552,5.6705729 0.25617936,4.2986804"
       id="path5350"
       sodipodi:nodetypes="cc" />
    <path
       style="fill:#444444;fill-opacity:1;stroke:#444444;stroke-width:2.00000003;stroke-linecap:round;stroke-linejoin:round;stroke-dasharray:none"
       d="M 8.0889715,37.900428 C 5.4419481,37.462997 3.5691515,36.381029 2.5265504,34.686859 1.6361706,33.240041 1.4691935,31.951405 1.6985344,28.296693 2.0249062,23.095726 2.0271396,20.365216 1.7077006,17.089791 1.6092388,16.080195 1.5905419,15.349651 1.5759596,11.942263 L 1.5589654,7.9713138 1.6917226,7.5133041 C 1.9695841,6.5546871 2.4659943,5.7719675 3.3099692,4.9617178 4.8824981,3.4520272 7.5891072,2.3151122 10.762788,1.831151 c 0.630687,-0.096175 0.759349,-0.09936 1.164845,-0.028841 1.281281,0.2228247 2.104306,0.2804742 4.044409,0.283294 1.131335,0.00164 2.383181,-0.031112 3.000273,-0.078505 0.874828,-0.067189 1.498693,-0.069385 3.588562,-0.012631 3.92861,0.1066873 8.826183,0.1798358 12.123572,0.1810735 l 3.005095,0.00113 1.495315,0.2023781 c 3.096043,0.419023 5.024071,0.5652987 7.494001,0.5685552 2.756271,0.00363 4.809521,-0.1926728 7.237812,-0.6919916 0.55005,-0.1131043 1.105983,-0.2164011 1.235407,-0.2295483 0.129423,-0.013147 1.413363,-0.05184 2.8532,-0.085984 1.439837,-0.034144 3.306184,-0.086929 4.147437,-0.1173002 2.421244,-0.087413 2.509152,-0.085284 3.390814,0.082127 6.027508,1.1445108 9.418563,3.8662589 11.03974,8.8607803 0.584118,1.79957 0.851331,3.178946 1.402528,7.240119 0.329242,2.425783 0.35375,3.016072 0.261153,6.290524 -0.0864,3.055505 -0.117487,3.486424 -0.449841,6.235862 -0.129088,1.067891 -0.400289,2.355163 -0.667837,3.169945 -0.635787,1.936178 -1.539493,2.953877 -3.031582,3.41398 -1.033435,0.318673 -1.054219,0.319792 -6.120916,0.329488 -2.588471,0.005 -5.924068,0.03877 -7.412439,0.07515 -4.916918,0.120173 -4.942752,0.119556 -6.706493,-0.159941 -15.664957,-2.48241 -31.349701,-2.335186 -44.9746815,0.42215 -0.3720927,0.0753 -0.7294782,0.128163 -0.79419,0.117469 z"
       id="path515"
       transform="matrix(0.26458333,0,0,0.26458333,0.04402209,0.07453317)" />
    <path
       style="fill:#444444;fill-opacity:1;stroke:#444444;stroke-width:2.00000003;stroke-linecap:round;stroke-linejoin:round;stroke-dasharray:none"
       d="M 78.022458,10.115617 C 77.817025,9.4636096 77.438826,8.5608551 77.062513,7.8242415 75.765319,5.2850537 73.889253,3.442395 71.241778,2.1071572 70.804974,1.8868575 70.487298,1.7065676 70.535832,1.7065129 c 0.16067,-1.809e-4 1.139521,0.1812073 1.617794,0.2997889 3.398663,0.8426558 5.015718,2.457047 5.67615,5.6667995 0.146908,0.713985 0.403559,2.8572687 0.342148,2.8572687 -0.01033,0 -0.07759,-0.186639 -0.149466,-0.414753 z"
       id="path1071"
       transform="matrix(0.26458333,0,0,0.26458333,0.04402209,0.07453317)" />
    <path
       style="fill:#444444;fill-opacity:1;stroke:#444444;stroke-width:3.00000004;stroke-linecap:round;stroke-linejoin:round;stroke-dasharray:none"
       d="m 18.178125,37.913682 c 0.852989,-0.116678 3.420299,-0.358576 4.941626,-0.465612 6.480736,-0.455966 13.723391,-0.375692 20.354794,0.225602 l 0.79419,0.07201 -0.617703,0.03935 c -0.758345,0.04831 -11.767078,0.151108 -20.001821,0.186771 -5.468,0.02368 -6.025811,0.01776 -5.471086,-0.05812 z"
       id="path1073"
       transform="matrix(0.26458333,0,0,0.26458333,0.04402209,0.07453317)" />
  </g>
</svg>
