<?xml version="1.0" encoding="UTF-8" standalone="no"?>
<!-- Created with Inkscape (http://www.inkscape.org/) -->

<svg
   width="79.869514"
   height="39.823334"
   preserveAspectRatio="none"
   viewBox="0 0 21.132142 10.53659"
   version="1.1"
   id="svg2836"
   inkscape:export-filename="border_dark_1.svg"
   inkscape:export-xdpi="96"
   inkscape:export-ydpi="96"
   sodipodi:docname="header_element_2 .svg"
   inkscape:version="1.2.2 (b0a8486541, 2022-12-01)"
   xmlns:inkscape="http://www.inkscape.org/namespaces/inkscape"
   xmlns:sodipodi="http://sodipodi.sourceforge.net/DTD/sodipodi-0.dtd"
   xmlns="http://www.w3.org/2000/svg"
   xmlns:svg="http://www.w3.org/2000/svg">
  <sodipodi:namedview
     id="namedview2838"
     pagecolor="#ffffff"
     bordercolor="#000000"
     borderopacity="0.25"
     inkscape:showpageshadow="2"
     inkscape:pageopacity="0.0"
     inkscape:pagecheckerboard="0"
     inkscape:deskcolor="#d1d1d1"
     inkscape:document-units="mm"
     showgrid="false"
     inkscape:zoom="16.990212"
     inkscape:cx="39.934757"
     inkscape:cy="19.893807"
     inkscape:window-width="1920"
     inkscape:window-height="1011"
     inkscape:window-x="0"
     inkscape:window-y="0"
     inkscape:window-maximized="1"
     inkscape:current-layer="layer1" />
  <defs
     id="defs2833" />
  <g
     inkscape:label="Layer 1"
     inkscape:groupmode="layer"
     id="layer1"
     transform="translate(-0.00874576,-0.03501333)">
    <path
       style="fill:none;stroke:#444444;stroke-width:0.396875;stroke-linecap:round;stroke-linejoin:round;stroke-dasharray:none;stroke-opacity:1"
       d="M 3.3350775,0.27909854 C 1.4375739,0.24730794 0.35964672,0.97893788 0.22724841,2.4337128 0.13711556,3.3708994 0.40913233,5.3427447 0.24664537,7.4264825 0.18077224,8.9059679 1.5513018,10.438988 2.8228857,10.343684 7.687346,9.9445564 14.585026,10.525254 17.801745,10.331924 19.563861,10.301233 20.740017,9.5745833 20.92986,7.6896037 20.95461,7.1384493 20.96775,5.24511 20.711834,2.5317675 20.683564,1.6729385 19.578374,0.2089102 17.936597,0.23376253 12.30032,0.87414303 8.1271828,0.32634233 3.3350705,0.27910253 Z"
       id="path3322"
       sodipodi:nodetypes="cccccccccc" />
    <path
       style="fill:none;stroke:#444444;stroke-width:0.396875;stroke-linecap:round;stroke-linejoin:round;stroke-dasharray:none;stroke-opacity:1"
       d="M 3.145238,0.28455387 C 6.2877619,0.96222834 11.032907,1.3740825 13.715457,0.55102198"
       id="path5166"
       sodipodi:nodetypes="cc" />
    <path
       style="fill:none;stroke:#444444;stroke-width:0.396875;stroke-linecap:round;stroke-linejoin:round;stroke-dasharray:none;stroke-opacity:1"
       d="m 16.826771,10.35776 c 2.732929,0.118222 4.02315,-2.7573519 4.104428,-3.1672676"
       id="path5220"
       sodipodi:nodetypes="cc" />
    <path
       style="fill:none;stroke:#444444;stroke-width:0.396875;stroke-linecap:round;stroke-linejoin:round;stroke-dasharray:none;stroke-opacity:1"
       d="M 11.283371,10.271334 C 8.87087,9.9892962 6.3579324,9.9732966 3.7335563,10.270516"
       id="path5222"
       sodipodi:nodetypes="cc" />
    <path
       style="fill:none;stroke:#444444;stroke-width:0.396875;stroke-linecap:round;stroke-linejoin:round;stroke-dasharray:none;stroke-opacity:1"
       d="M 20.877696,4.8319736 C 20.664457,3.2503568 20.988513,3.4636449 20.400118,1.6298248"
       id="path5224"
       sodipodi:nodetypes="cc" />
    <path
       style="fill:none;stroke:#444444;stroke-width:0.396875;stroke-linecap:round;stroke-linejoin:round;stroke-dasharray:none;stroke-opacity:1"
       d="M 1.2755415,0.71170598 C 0.0372737,2.2229838 0.45457197,3.7411588 0.29019248,5.2928329"
       id="path5226"
       sodipodi:nodetypes="cc" />
    <path
       style="fill:#444444;fill-opacity:1;stroke:#444444;stroke-width:2.00000003;stroke-linecap:round;stroke-linejoin:round;stroke-dasharray:none"
       d="m 58.180556,38.276045 c -1.998431,-0.02265 -6.9219,-0.13387 -11.357136,-0.25656 -3.104663,-0.08588 -4.518852,-0.147784 -5.297167,-0.231863 -8.7381,-0.943946 -17.766921,-0.925167 -26.900185,0.05595 -2.621263,0.281583 -4.412084,0.387081 -5.0822696,0.299399 C 6.371685,37.727959 3.1155627,34.542783 2.0393907,30.802075 1.6863734,29.575008 1.6195664,28.573085 1.7614004,26.632981 c 0.040232,-0.550317 0.083075,-2.338111 0.095208,-3.972876 0.012133,-1.634764 0.048694,-3.462287 0.081247,-4.061161 0.032553,-0.598875 0.074609,-2.095324 0.093458,-3.325444 0.018849,-1.23012 0.060726,-2.673599 0.093061,-3.20773 C 2.3393636,8.5144328 3.1961807,5.9797179 4.993101,3.5792405 5.3532687,3.098098 5.4035809,3.0552286 5.844782,2.8535502 7.2288822,2.2208613 9.016453,1.8285946 10.955272,1.7320981 c 0.670112,-0.033352 0.794698,-0.02177 1.568665,0.1458335 1.806112,0.3911149 4.964858,0.9379066 7.487585,1.2961308 10.202373,1.4487253 19.999059,1.6728662 27.015554,0.6180958 1.727815,-0.2597377 3.86224,-0.72647 4.936733,-1.0795102 0.263052,-0.086429 0.602877,-0.1166443 1.655298,-0.1471784 3.550284,-0.1030049 8.562194,-0.4438209 12.231148,-0.8317328 2.037702,-0.2154422 2.285327,-0.2274821 3.021469,-0.1469077 2.262461,0.2476378 4.335931,1.2765148 6.041425,2.997822 0.428806,0.4327758 1.033789,1.1751669 1.324086,1.6248064 0.263669,0.4083954 1.080351,3.3118144 1.299613,4.6203075 0.133418,0.796185 0.213688,1.746469 0.213782,2.530869 0,1.001743 0.105266,2.716152 0.238237,3.884589 0.185589,1.630851 0.349413,5.505598 0.350054,8.279492 l 5.89e-4,1.304887 -0.182917,0.519693 c -0.238549,0.677751 -0.765947,1.756598 -1.286853,2.632397 -2.208095,3.712481 -5.250899,6.414098 -8.496521,7.543827 -1.531441,0.533057 -2.436373,0.670474 -4.836349,0.734411 -1.770455,0.04717 -2.438693,0.04918 -5.356025,0.01612 z"
       id="path1621"
       transform="matrix(0.26458333,0,0,0.26458333,0.00874576,0.03501333)" />
    <path
       style="fill:#444444;fill-opacity:1;stroke:#444444;stroke-width:3.00000004;stroke-linecap:round;stroke-linejoin:round;stroke-dasharray:none"
       d="M 33.607585,2.8428038 C 31.128649,2.768416 25.801048,2.3549612 23.601824,2.0662949 c -0.346927,-0.045537 -0.357895,-0.050905 -0.117715,-0.057613 0.145672,-0.00407 2.463183,0.083996 5.150024,0.1956984 7.055792,0.2933367 11.212545,0.4339114 13.360634,0.4518352 0.981573,0.00819 1.01834,0.01221 0.500288,0.0547 -1.795253,0.1472429 -6.198331,0.2125836 -8.88747,0.1318883 z"
       id="path1623"
       transform="matrix(0.26458333,0,0,0.26458333,0.00874576,0.03501333)" />
    <path
       style="fill:#444444;fill-opacity:1;stroke:#444444;stroke-width:3.00000004;stroke-linecap:round;stroke-linejoin:round;stroke-dasharray:none"
       d="m 72.394623,37.238863 c 0,-0.01685 0.166678,-0.149582 0.370397,-0.294953 1.593122,-1.136828 3.427859,-3.063482 4.620988,-4.852489 0.178327,-0.267387 0.334074,-0.476315 0.346106,-0.464284 0.04213,0.04213 -0.290799,0.896848 -0.570779,1.465354 -0.846942,1.719731 -2.184645,3.037209 -3.895675,3.836778 -0.549511,0.256788 -0.871037,0.371069 -0.871037,0.309594 z"
       id="path1625"
       transform="matrix(0.26458333,0,0,0.26458333,0.00874576,0.03501333)" />
  </g>
</svg>
