<?xml version="1.0" encoding="UTF-8" standalone="no"?>
<!-- Created with Inkscape (http://www.inkscape.org/) -->

<svg
   width="640"
   height="39.736244"
   preserveAspectRatio="none"
   viewBox="0 0 169.33332 10.513548"
   version="1.1"
   id="svg2836"
   inkscape:export-filename="border_small_dark_4.svg"
   inkscape:export-xdpi="96"
   inkscape:export-ydpi="96"
   sodipodi:docname="header_element_long_1.svg"
   inkscape:version="1.2.2 (b0a8486541, 2022-12-01)"
   xmlns:inkscape="http://www.inkscape.org/namespaces/inkscape"
   xmlns:sodipodi="http://sodipodi.sourceforge.net/DTD/sodipodi-0.dtd"
   xmlns="http://www.w3.org/2000/svg"
   xmlns:svg="http://www.w3.org/2000/svg">
  <sodipodi:namedview
     id="namedview2838"
     pagecolor="#ffffff"
     bordercolor="#000000"
     borderopacity="0.25"
     inkscape:showpageshadow="2"
     inkscape:pageopacity="0.0"
     inkscape:pagecheckerboard="0"
     inkscape:deskcolor="#d1d1d1"
     inkscape:document-units="mm"
     showgrid="false"
     inkscape:zoom="90.509672"
     inkscape:cx="16.246882"
     inkscape:cy="37.211493"
     inkscape:window-width="1920"
     inkscape:window-height="1011"
     inkscape:window-x="0"
     inkscape:window-y="0"
     inkscape:window-maximized="1"
     inkscape:current-layer="layer1" />
  <defs
     id="defs2833" />
  <g
     inkscape:label="Layer 1"
     inkscape:groupmode="layer"
     id="layer1"
     transform="translate(-0.03381979,-0.03496019)">
    <path
       style="fill:none;stroke:#444444;stroke-width:1.09262;stroke-linecap:round;stroke-linejoin:round;stroke-dasharray:none;stroke-opacity:1"
       d="M 25.838336,0.62545994 C 10.454975,1.1038738 2.144445,-0.00183499 1.0065358,1.1664257 0.27267717,2.0388548 0.6938373,5.6279401 0.67293784,7.5654239 0.98339989,10.668679 -0.6695387,9.8588624 21.659045,9.9762432 67.710169,10.06376 126.48519,9.7636388 143.58327,9.9743839 c 20.34663,0.031554 24.73008,0.3950941 24.97228,-1.3141513 0.0879,-2.3241369 0.0753,-3.0109568 0.26861,-5.5248527 0.20597,-3.48311691 -1.70109,-2.1017224 -24.07992,-2.58436684 C 98.853872,0.80850335 64.855506,0.66944302 25.838296,0.62546738 Z"
       id="path3322"
       sodipodi:nodetypes="cccccccccc" />
    <path
       style="fill:none;stroke:#444444;stroke-width:1.09262;stroke-linecap:round;stroke-linejoin:round;stroke-dasharray:none;stroke-opacity:1"
       d="M 32.191636,9.8986997 C 1.2292955,10.33808 0.20814412,5.8269366 3.1022272,1.9136034"
       id="path5158"
       sodipodi:nodetypes="cc" />
    <path
       style="fill:none;stroke:#444444;stroke-width:1.09262;stroke-linecap:round;stroke-linejoin:round;stroke-dasharray:none;stroke-opacity:1"
       d="M 101.28667,0.87672648 C 129.9552,1.0462041 166.85641,0.4424327 168.75365,3.1263934"
       id="path5160"
       sodipodi:nodetypes="cc" />
    <path
       style="fill:none;stroke:#444444;stroke-width:1.09262;stroke-linecap:round;stroke-linejoin:round;stroke-dasharray:none;stroke-opacity:1"
       d="m 168.3256,5.6444181 c -2.9507,2.5991672 0.0659,1.3187503 -2.77973,3.5911119"
       id="path5162"
       sodipodi:nodetypes="cc" />
    <path
       style="fill:none;stroke:#444444;stroke-width:1.09262;stroke-linecap:round;stroke-linejoin:round;stroke-dasharray:none;stroke-opacity:1"
       d="M 73.483012,9.7297092 C 96.448295,9.5147433 119.29906,9.4641356 141.78274,9.9507678"
       id="path5164"
       sodipodi:nodetypes="cc" />
    <path
       style="fill:none;stroke:#444444;stroke-width:1.09262;stroke-linecap:round;stroke-linejoin:round;stroke-dasharray:none;stroke-opacity:1"
       d="M 24.29267,0.63053833 C 61.32273,1.2696267 48.989243,1.4491562 93.133945,0.87840138"
       id="path5166"
       sodipodi:nodetypes="cc" />
    <path
       style="fill:#444444;fill-opacity:1;stroke:#444444;stroke-width:1.45683;stroke-linecap:round;stroke-linejoin:round;stroke-dasharray:none;stroke-opacity:1"
       d="M 14.443126,9.7797256 C 8.437442,9.6993898 5.499322,9.4541661 3.8801808,8.898113 3.1883982,8.6605375 2.7380443,8.3557447 2.5287716,7.9834986 2.4377064,7.8215152 2.325526,7.3932627 2.3321925,7.2330496 L 2.337466,7.1060505 2.4377389,7.15608 c 0.4516112,0.2253259 0.608845,0.298787 0.9054887,0.4230519 2.1843243,0.9150186 5.7252783,1.5988786 10.4181514,2.0120442 0.627269,0.055225 1.723922,0.1400303 2.246923,0.1737563 0.212898,0.013729 0.387088,0.026363 0.387088,0.028075 0,0.0069 -0.903166,7.635e-4 -1.952269,-0.013283 z"
       id="path1339" />
    <path
       style="fill:#444444;fill-opacity:1;stroke:#444444;stroke-width:1.45683;stroke-linecap:round;stroke-linejoin:round;stroke-dasharray:none;stroke-opacity:1"
       d="m 145.51445,9.7885969 c -1.62913,-0.00658 -3.2347,-0.019317 -3.56794,-0.028322 C 140.96337,9.73371 135.88337,9.6389697 133.19495,9.597061 123.51244,9.4461232 115.23268,9.3882742 103.30504,9.3882265 94.271293,9.3881957 87.20323,9.4191786 78.262139,9.4980219 76.29977,9.5153268 73.330974,9.5323759 71.664815,9.5359106 53.457079,9.5745341 42.223222,9.6248935 30.814852,9.7190356 25.77317,9.7606396 22.30059,9.6975262 18.836799,9.5013374 17.017085,9.398269 15.733841,9.2906687 14.098386,9.1040208 12.511337,8.9228974 11.613081,8.7935503 10.631785,8.6048372 4.4245468,7.4111244 2.5060152,5.4605902 4.4917667,2.3623992 L 4.7670703,1.9328674 5.3485323,1.8005245 C 7.9513352,1.208117 13.16809,0.89864062 21.722208,0.82918003 c 1.943541,-0.0157818 1.9655,-0.0155921 5.380909,0.046511 5.354446,0.0973611 9.457721,0.17685347 15.075698,0.29206027 2.850986,0.058465 6.153014,0.1234954 7.33784,0.1445128 9.160648,0.1624984 13.574391,0.143578 37.362396,-0.1601609 6.813565,-0.087 7.374348,-0.091939 10.367223,-0.091313 1.740211,3.646e-4 4.163716,0.00712 5.385566,0.014999 1.22185,0.00789 7.61386,0.021335 14.20445,0.029889 6.59059,0.00856 13.58846,0.022766 15.55083,0.031583 10.77976,0.048434 17.94448,0.1740929 23.22126,0.4072686 6.87156,0.3036475 10.4126,0.763442 11.31844,1.4696705 0.1958,0.1526464 0.20415,0.2421131 0.0755,0.8059847 -0.41081,1.7994119 -0.41816,1.8192671 -0.82845,2.2352365 -0.73721,0.7474401 -0.82117,0.8770143 -0.93776,1.4470196 -0.11913,0.5824208 -0.22275,0.7310503 -0.94969,1.3623535 -0.39677,0.3445665 -0.44,0.3667612 -0.91,0.4671194 -1.15577,0.2467929 -2.83022,0.3716564 -5.81169,0.4333793 -1.51408,0.031345 -7.28913,0.042513 -12.05022,0.023303 z"
       id="path1548" />
    <path
       style="fill:#444444;fill-opacity:1;stroke:#444444;stroke-width:1.45683;stroke-linecap:round;stroke-linejoin:round;stroke-dasharray:none;stroke-opacity:1"
       d="m 163.78736,1.6312199 c -2.3105,-0.2165349 -5.58044,-0.4045432 -9.31542,-0.5355994 -3.40629,-0.11952311 -7.80317,-0.21421727 -12.33691,-0.2656958 -0.46471,-0.005276 -0.84493,-0.0109453 -0.84493,-0.012597 0,-0.001652 0.86395,-0.0135795 1.91988,-0.0265065 2.09631,-0.0256631 2.42476,-0.026414 4.88722,-0.0111717 4.34871,0.0269178 8.11523,0.13205348 10.82081,0.302044 0.69057,0.043388 1.74171,0.1244879 2.2698,0.175124 0.6341,0.060803 1.62662,0.1793209 2.07377,0.2476325 0.42139,0.064376 0.90305,0.1498662 0.86737,0.1539464 -0.0127,0.00146 -0.1665,-0.010768 -0.34159,-0.027176 z"
       id="path1550" />
    <path
       style="fill:#444444;fill-opacity:1;stroke:#444444;stroke-width:1.45683;stroke-linecap:round;stroke-linejoin:round;stroke-dasharray:none;stroke-opacity:1"
       d="M 57.938699,1.0317103 C 54.643539,1.0141613 52.715217,0.98943 48.75148,0.91387994 c -1.300971,-0.0247969 -1.720533,-0.0344896 -1.54707,-0.0357403 0.260363,-0.001876 2.611752,0.008498 10.234464,0.0451608 2.749027,0.0132217 6.44883,0.0308521 8.221785,0.0391786 1.772957,0.008326 3.208163,0.0166906 3.189346,0.0185869 -0.04937,0.004975 -2.617344,0.0263254 -4.865831,0.0404548 -1.254848,0.00789 -5.222457,0.014573 -6.045475,0.01019 z"
       id="path1552" />
    <path
       style="fill:#444444;fill-opacity:1;stroke:#444444;stroke-width:3.77952761;stroke-linecap:round;stroke-linejoin:round;stroke-dasharray:none"
       d="M 6.2297369,30.299043 C 5.5789476,29.837331 5.1163772,29.329885 4.9141715,28.855848 4.7383406,28.443643 4.3744987,26.675742 4.2417213,25.588426 4.1498495,24.836085 4.1352843,22.707634 4.2157129,21.787727 4.377283,19.939758 4.7504088,18.097437 5.2965055,16.451278 L 5.512754,15.799416 5.490487,16.396038 c -0.092264,2.472142 0.7024696,4.897436 2.3025304,7.026647 l 0.4149684,0.552201 -0.3388327,0.110711 c -0.8717951,0.284854 -1.5214405,0.930259 -1.7983642,1.786625 -0.157502,0.487064 -0.1952256,1.483258 -0.084645,2.235271 0.08277,0.562884 0.3545272,1.670692 0.523093,2.132369 0.059905,0.164071 0.096471,0.297679 0.081257,0.296906 -0.015213,-7.73e-4 -0.1775544,-0.107749 -0.3607581,-0.237725 z"
       id="path519"
       transform="matrix(0.26458333,0,0,0.26458333,0.03381979,0.03496019)" />
    <path
       style="fill:#444444;fill-opacity:1;stroke:#444444;stroke-width:3.77952761;stroke-linecap:round;stroke-linejoin:round;stroke-dasharray:none"
       d="M 12.12502,22.019746 C 10.726593,20.633252 9.984926,19.305357 9.7372958,17.744717 9.6332012,17.088682 9.6766881,15.897191 9.8316833,15.158601 10.195137,13.426657 11.122887,11.459576 12.582969,9.3251329 l 0.347549,-0.5080704 0.263304,-0.070496 c 0.144817,-0.038773 0.314668,-0.083137 0.377448,-0.098587 0.106255,-0.026149 0.07714,0.04591 -0.42132,1.0426053 -0.733256,1.4661972 -1.122136,2.4651932 -1.457745,3.7448072 -0.820036,3.126655 -0.521856,6.080081 0.882301,8.739034 0.13157,0.249144 0.222162,0.45299 0.201316,0.45299 -0.02085,0 -0.313708,-0.273451 -0.650802,-0.60767 z"
       id="path1076"
       transform="matrix(0.26458333,0,0,0.26458333,0.03381979,0.03496019)" />
    <path
       style="fill:#444444;fill-opacity:1;stroke:#444444;stroke-width:3.77952761;stroke-linecap:round;stroke-linejoin:round;stroke-dasharray:none"
       d="m 631.72442,22.362251 c 0.0141,-0.03646 0.12744,-0.31363 0.25176,-0.615933 0.37984,-0.923598 0.68688,-2.03414 1.3265,-4.797853 0.76603,-3.309892 0.83949,-3.707497 0.83949,-4.543527 v -0.510514 l 0.27622,0.111751 c 0.15191,0.06146 0.48996,0.220848 0.7512,0.354189 0.41487,0.211752 0.47226,0.254554 0.45336,0.338144 -0.0119,0.05264 -0.11989,0.553114 -0.23997,1.112171 -0.41517,1.932855 -0.98904,4.291085 -1.46536,6.021679 l -0.1734,0.629991 -0.3424,0.318925 c -0.18832,0.175409 -0.64856,0.617802 -1.02276,0.983097 -0.37419,0.365294 -0.66878,0.63434 -0.65464,0.59788 z"
       id="path1078"
       transform="matrix(0.26458333,0,0,0.26458333,0.03381979,0.03496019)" />
    <path
       style="fill:#444444;fill-opacity:1;stroke:#444444;stroke-width:3.77952761;stroke-linecap:round;stroke-linejoin:round;stroke-dasharray:none"
       d="m 626.3198,31.341336 c 0,-0.0218 0.0573,-0.166684 0.12738,-0.321963 0.20382,-0.451755 0.42596,-1.192659 0.62127,-2.07219 0.2976,-1.340105 0.38735,-1.554352 0.91758,-2.190214 0.3444,-0.413007 1.30395,-1.439269 1.32554,-1.417685 0.0106,0.01058 -0.0408,0.125656 -0.11421,0.255723 -0.48738,0.863706 -0.70979,1.891957 -0.62412,2.885496 0.0338,0.392254 0.0288,0.457166 -0.0472,0.606124 -0.14434,0.282931 -0.70131,0.913908 -1.39173,1.576665 -0.64217,0.616435 -0.81448,0.759876 -0.81448,0.678044 z"
       id="path1080"
       transform="matrix(0.26458333,0,0,0.26458333,0.03381979,0.03496019)" />
    <path
       style="fill:#444444;fill-opacity:1;stroke:#444444;stroke-width:3.77952761;stroke-linecap:round;stroke-linejoin:round;stroke-dasharray:none"
       d="m 633.43507,7.2799594 c -2.17933,-0.6153164 -4.8199,-1.1350449 -8.44628,-1.6624299 -1.12178,-0.1631401 -2.04983,-0.3105243 -2.06234,-0.3275206 -0.0125,-0.016996 -0.1491,-0.2591048 -0.30355,-0.5380187 l -0.28082,-0.5071163 0.64094,0.042855 c 0.35252,0.02357 1.31711,0.084879 2.14354,0.1362425 3.78447,0.2352071 6.67134,0.8219113 8.06609,1.6392894 0.50761,0.29748 1.15831,0.8966461 1.37436,1.2655172 0.19552,0.3338019 0.22821,0.3352119 -1.13194,-0.048819 z"
       id="path1178"
       transform="matrix(0.26458333,0,0,0.26458333,0.03381979,0.03496019)" />
    <path
       style="fill:#444444;fill-opacity:1;stroke:#444444;stroke-width:3.77952761;stroke-linecap:round;stroke-linejoin:round;stroke-dasharray:none"
       d="m 630.44234,33.300309 c 1.09548,-1.120507 1.51554,-1.678429 1.94652,-2.58536 0.32351,-0.68078 0.33773,-0.750326 0.38176,-1.867979 l 0.0457,-1.160872 0.34415,-0.499211 c 0.34223,-0.496431 1.80121,-2.120675 2.08689,-2.323295 0.16759,-0.118858 0.16801,-0.214476 -0.008,1.873882 -0.31494,3.731613 -1.11221,6.085173 -2.24313,6.621834 -0.35038,0.166265 -2.96102,0.846981 -3.24829,0.846981 -0.15072,0 -0.004,-0.191502 0.69462,-0.90598 z"
       id="path1180"
       transform="matrix(0.26458333,0,0,0.26458333,0.03381979,0.03496019)" />
    <path
       style="fill:#444444;fill-opacity:1;stroke:#444444;stroke-width:3.77952761;stroke-linecap:round;stroke-linejoin:round;stroke-dasharray:none"
       d="m 623.25201,34.909302 c 0.046,-0.05086 0.11872,-0.111226 0.16153,-0.134137 0.0664,-0.03552 0.0778,-0.0219 0.0778,0.09248 0,0.12492 -0.0111,0.134137 -0.16153,0.134137 -0.16112,0 -0.16132,-2.38e-4 -0.0778,-0.09248 z"
       id="path1182"
       transform="matrix(0.26458333,0,0,0.26458333,0.03381979,0.03496019)" />
    <path
       style="fill:#444444;fill-opacity:1;stroke:#444444;stroke-width:3.77952761;stroke-linecap:round;stroke-linejoin:round;stroke-dasharray:none"
       d="m 4.1874998,14.044581 c 0,-1.418625 0.4122213,-4.5928474 0.7794871,-6.0022729 C 5.2991303,6.7676691 5.6310183,6.115023 6.1313861,5.7525585 6.9502812,5.1593539 9.2555175,4.5860319 12.156249,4.2541494 14.422902,3.9948141 18.673109,3.7204477 19.772914,3.7624658 l 0.491664,0.018784 -1.616664,0.361973 c -1.810389,0.4053482 -2.224937,0.5647517 -2.6974,1.0372147 -0.16268,0.1626798 -0.518817,0.6497993 -0.791417,1.0824877 L 14.663462,7.0496315 14.510192,6.9492053 C 14.425894,6.8939709 14.203674,6.8181786 14.01637,6.780778 13.677336,6.7130799 13.67529,6.7112777 13.557356,6.3763918 13.21261,5.3974528 12.047879,4.7949773 11.058006,5.0835646 10.326696,5.2967709 10.069581,5.5561696 8.9676441,7.1924937 7.5957944,9.2296253 6.5522332,11.340145 6.034275,13.124999 l -0.2085786,0.71875 -0.3993746,0.04041 c -0.4291456,0.04342 -0.7615457,0.159505 -1.0549474,0.368425 l -0.1838746,0.13093 z"
       id="path1184"
       transform="matrix(0.26458333,0,0,0.26458333,0.03381979,0.03496019)" />
    <path
       style="fill:#444444;fill-opacity:1;stroke:#444444;stroke-width:3.77952761;stroke-linecap:round;stroke-linejoin:round;stroke-dasharray:none"
       d="M 8.2812496,33.846532 C 6.1227879,33.285089 5.1872599,32.724116 4.9088562,31.824339 c -0.041849,-0.135253 -0.025514,-0.130955 0.2576056,0.06778 0.3580548,0.251334 1.1482575,0.546107 1.4628191,0.545683 0.1226671,-1.63e-4 0.3680579,-0.04337 0.5453128,-0.09601 l 0.3222817,-0.09571 0.7046871,0.711201 c 0.3875779,0.391161 0.8171871,0.798912 0.9546871,0.906112 0.2344989,0.182825 0.2403119,0.194897 0.09375,0.194694 -0.085937,-1.19e-4 -0.521875,-0.09532 -0.96875,-0.211559 z"
       id="path1186"
       transform="matrix(0.26458333,0,0,0.26458333,0.03381979,0.03496019)" />
    <path
       style="fill:#444444;fill-opacity:1;stroke:#444444;stroke-width:3.77952761;stroke-linecap:round;stroke-linejoin:round;stroke-dasharray:none"
       d="m 622.87906,35.222316 c 0.28663,-0.256408 0.32775,-0.289877 0.31785,-0.258688 -0.009,0.02945 -0.003,0.0347 0.0528,0.04413 0.0903,0.01526 0.21898,-0.0051 0.23105,-0.03651 0.005,-0.01403 0.0188,0.03719 0.0299,0.113831 0.0111,0.07664 0.0185,0.140904 0.0164,0.142813 -0.002,0.0019 -0.13726,0.01133 -0.30054,0.02094 -0.16329,0.0096 -0.32317,0.02091 -0.35529,0.0251 l -0.0584,0.0076 z"
       id="path4175"
       transform="matrix(0.26458333,0,0,0.26458333,0.03381979,0.03496019)" />
    <path
       style="fill:#444444;fill-opacity:1;stroke:#444444;stroke-width:0.16629921;stroke-linecap:round;stroke-linejoin:round;stroke-dasharray:none"
       d="M 21.169008,39.644213 C 17.863144,39.611126 17.059107,39.594148 14.672465,39.507032 10.766369,39.364455 8.0475373,39.079644 6.1871841,38.618157 2.9145191,37.806328 1.2817233,36.203679 0.79651828,33.327021 0.68008882,32.63674 0.63549933,32.173565 0.5301657,30.56027 0.48096822,29.806759 0.42958193,29.150476 0.41597393,29.101862 0.40236593,29.053249 0.37402261,28.019105 0.35298884,26.803765 0.33195505,25.588426 0.26417037,23.321265 0.20235621,21.76563 0.03733395,17.612627 4.7762851e-4,16.289043 2.2609296e-4,14.506737 L 0,12.904698 h 44.238366 44.238366 v 13.373423 13.373422 l -5.513223,-0.02763 c -11.459071,-0.05743 -35.086928,-0.04246 -53.530191,0.03391 -2.6859,0.01112 -6.40484,0.005 -8.26431,-0.01362 z m -9.875124,-4.539151 -0.307086,-0.157539 -0.08072,0.09968 c -0.04439,0.05482 -0.06867,0.11178 -0.05394,0.126567 0.02193,0.02202 0.304003,0.05675 0.682539,0.08405 0.03646,0.0026 -0.0719,-0.06611 -0.240795,-0.15276 z"
       id="path4201"
       transform="matrix(0.26458333,0,0,0.26458333,0.03381979,0.03496019)" />
    <path
       style="fill:#444444;fill-opacity:1;stroke:#444444;stroke-width:7.55905522;stroke-linecap:round;stroke-linejoin:round;stroke-dasharray:none"
       d="m 11.044131,35.122162 c -0.03585,-0.0052 -0.06649,-0.01084 -0.0681,-0.01246 -0.0016,-0.0016 0.0056,-0.01347 0.01602,-0.02632 l 0.01895,-0.02337 0.07125,0.03664 c 0.07433,0.03822 0.0698,0.04125 -0.03812,0.02551 z"
       id="path4203"
       transform="matrix(0.26458333,0,0,0.26458333,0.03381979,0.03496019)" />
  </g>
</svg>
