<?xml version="1.0" encoding="UTF-8" standalone="no"?>
<!-- Created with Inkscape (http://www.inkscape.org/) -->

<svg
   width="79.601692"
   height="39.736244"
   preserveAspectRatio="none"
   viewBox="0 0 21.06128 10.513548"
   version="1.1"
   id="svg2836"
   inkscape:export-filename="border_small_dark_4.svg"
   inkscape:export-xdpi="96"
   inkscape:export-ydpi="96"
   sodipodi:docname="header_element_1 .svg"
   inkscape:version="1.2.2 (b0a8486541, 2022-12-01)"
   xmlns:inkscape="http://www.inkscape.org/namespaces/inkscape"
   xmlns:sodipodi="http://sodipodi.sourceforge.net/DTD/sodipodi-0.dtd"
   xmlns="http://www.w3.org/2000/svg"
   xmlns:svg="http://www.w3.org/2000/svg">
  <sodipodi:namedview
     id="namedview2838"
     pagecolor="#ffffff"
     bordercolor="#000000"
     borderopacity="0.25"
     inkscape:showpageshadow="2"
     inkscape:pageopacity="0.0"
     inkscape:pagecheckerboard="0"
     inkscape:deskcolor="#d1d1d1"
     inkscape:document-units="mm"
     showgrid="false"
     inkscape:zoom="11.313709"
     inkscape:cx="23.467106"
     inkscape:cy="3.2703689"
     inkscape:window-width="1920"
     inkscape:window-height="1011"
     inkscape:window-x="0"
     inkscape:window-y="0"
     inkscape:window-maximized="1"
     inkscape:current-layer="layer1" />
  <defs
     id="defs2833" />
  <g
     inkscape:label="Layer 1"
     inkscape:groupmode="layer"
     id="layer1"
     transform="translate(-0.03381979,-0.03496019)">
    <path
       style="fill:none;stroke:#444444;stroke-width:0.396875;stroke-linecap:round;stroke-linejoin:round;stroke-dasharray:none;stroke-opacity:1"
       d="M 3.3350775,0.27909854 C 1.4375739,0.24730794 0.50677549,0.94769596 0.37437718,2.4024709 0.28424433,3.3396575 0.18950147,5.6893524 0.25318238,7.7862033 0.29425308,10.028862 0.99897731,10.383778 2.8228857,10.343684 8.4809486,9.834279 15.696572,10.095574 17.796566,10.321962 c 2.111675,0.04251 2.798497,0.253932 2.948268,-2.2253242 0.0088,-0.5492698 0.09129,-2.3705784 0.151831,-5.1213163 -0.102228,-1.2401582 -0.24774,-2.76968417 -2.960066,-2.74155497 -5.636277,0.6403805 -9.8094142,0.0925798 -14.6015265,0.04534 z"
       id="path3322"
       sodipodi:nodetypes="cccccccccc" />
    <path
       style="fill:none;stroke:#444444;stroke-width:0.396875;stroke-linecap:round;stroke-linejoin:round;stroke-dasharray:none;stroke-opacity:1"
       d="M 4.1153928,10.24066 C 0.31258346,10.712654 0.18716517,5.8666635 0.54261783,1.6628566"
       id="path5158"
       sodipodi:nodetypes="cc" />
    <path
       style="fill:none;stroke:#444444;stroke-width:0.396875;stroke-linecap:round;stroke-linejoin:round;stroke-dasharray:none;stroke-opacity:1"
       d="M 12.601678,0.54901575 C 16.122761,0.73107318 20.654983,0.08248578 20.888005,2.965668"
       id="path5160"
       sodipodi:nodetypes="cc" />
    <path
       style="fill:none;stroke:#444444;stroke-width:0.396875;stroke-linecap:round;stroke-linejoin:round;stroke-dasharray:none;stroke-opacity:1"
       d="m 20.835431,5.6705973 c -0.362407,2.7920947 0.0081,1.4166367 -0.341408,3.8576681"
       id="path5162"
       sodipodi:nodetypes="cc" />
    <path
       style="fill:none;stroke:#444444;stroke-width:0.396875;stroke-linecap:round;stroke-linejoin:round;stroke-dasharray:none;stroke-opacity:1"
       d="M 9.1868191,10.059126 C 12.007426,9.8282039 14.813967,9.7738397 17.575424,10.296593"
       id="path5164"
       sodipodi:nodetypes="cc" />
    <path
       style="fill:none;stroke:#444444;stroke-width:0.396875;stroke-linecap:round;stroke-linejoin:round;stroke-dasharray:none;stroke-opacity:1"
       d="m 3.145238,0.28455387 c 4.5480495,0.6865258 3.0332448,0.87938123 8.455118,0.2662611"
       id="path5166"
       sodipodi:nodetypes="cc" />
    <path
       style="fill:#444444;fill-opacity:1;stroke:#444444;stroke-width:2.00000003;stroke-linecap:round;stroke-linejoin:round;stroke-dasharray:none;stroke-opacity:1"
       d="M 7.1875,38.089681 C 4.3996409,37.763512 3.0357557,36.767887 2.2841449,34.510273 1.9630171,33.5457 1.7539613,32.30822 1.6568162,30.796875 1.6145434,30.139211 1.5624689,28.400476 1.5655635,27.75 l 0.00245,-0.515625 0.046547,0.203125 c 0.2096374,0.914837 0.2826259,1.213094 0.4203289,1.717618 1.0139707,3.715039 2.6576935,6.491558 4.836141,8.169039 0.2911803,0.224218 0.8002503,0.568533 1.0430294,0.705463 0.098828,0.05574 0.1796875,0.107035 0.1796875,0.113988 0,0.028 -0.4192528,0.0031 -0.90625,-0.05393 z"
       id="path1339"
       transform="matrix(0.26458333,0,0,0.26458333,0.03381979,0.03496019)" />
    <path
       style="fill:#444444;fill-opacity:1;stroke:#444444;stroke-width:2.00000003;stroke-linecap:round;stroke-linejoin:round;stroke-dasharray:none;stroke-opacity:1"
       d="m 68.03125,38.125699 c -0.75625,-0.02669 -1.501563,-0.07843 -1.65625,-0.114988 -0.456375,-0.107854 -2.814533,-0.492507 -4.0625,-0.662659 -4.494659,-0.612818 -8.33815,-0.847689 -13.875,-0.847883 -4.193496,-1.25e-4 -7.474515,0.125668 -11.625,0.445777 -0.910938,0.07026 -2.289063,0.13948 -3.0625,0.15383 -8.452092,0.156813 -13.666886,0.361278 -18.96269,0.7435 -2.340366,0.168915 -3.952349,-0.08733 -5.5602525,-0.88387 C 8.38234,36.540941 7.7866538,36.104076 7.0274703,35.346273 6.2907565,34.610899 5.8737834,34.085741 5.4182621,33.319553 2.5368414,28.472996 1.6462526,20.553692 2.5680451,7.9748212 L 2.695842,6.2308923 2.9657586,5.6935711 c 1.2082299,-2.4052155 3.6298651,-3.661711 7.6007154,-3.9437258 0.902198,-0.064075 0.912392,-0.063305 2.497836,0.1888381 2.485552,0.3952925 4.390306,0.718037 6.99819,1.185785 1.323437,0.2373706 2.85625,0.5013998 3.40625,0.5867315 4.252404,0.6597547 6.301278,0.5829368 17.34375,-0.6502643 3.16288,-0.353224 3.423197,-0.373278 4.8125,-0.3707379 0.807812,0.00148 1.932812,0.02888 2.5,0.060896 0.567187,0.032016 3.534375,0.086625 6.59375,0.1213546 3.059375,0.034729 6.307812,0.092433 7.21875,0.1282301 5.004,0.1966436 8.329887,0.7068292 10.779387,1.6535387 3.1898,1.23283 4.833563,3.0996276 5.254057,5.9669639 0.09089,0.619755 0.09477,0.982996 0.03502,3.272354 -0.1907,7.305737 -0.194112,7.386351 -0.384568,9.075215 -0.342213,3.034659 -0.381194,3.560739 -0.435313,5.875 -0.0553,2.364669 -0.1034,2.968115 -0.44085,5.53125 -0.184181,1.398964 -0.20425,1.489076 -0.422425,1.896537 -0.536512,1.001996 -1.313794,1.508951 -2.697806,1.75955 -0.702844,0.127263 -3.383638,0.172605 -5.59375,0.09461 z"
       id="path1548"
       transform="matrix(0.26458333,0,0,0.26458333,0.03381979,0.03496019)" />
    <path
       style="fill:#444444;fill-opacity:1;stroke:#444444;stroke-width:2.00000003;stroke-linecap:round;stroke-linejoin:round;stroke-dasharray:none;stroke-opacity:1"
       d="M 76.513599,5.0061828 C 75.441055,4.127036 73.923139,3.3637094 72.189349,2.8316122 70.608135,2.34634 68.567086,1.9618751 66.462513,1.7528687 66.24679,1.7314451 66.07029,1.7084301 66.07029,1.7017242 c 0,-0.00671 0.401048,-0.055134 0.891219,-0.1076183 0.97311,-0.1041941 1.125579,-0.1072424 2.268664,-0.045358 2.018683,0.109288 3.767111,0.5361463 5.023055,1.2263198 0.320566,0.1761592 0.808507,0.5054291 1.053644,0.7110154 0.294355,0.2468626 0.755086,0.7280551 0.962653,1.0054052 0.19561,0.2613723 0.419203,0.6084671 0.402638,0.6250326 -0.0059,0.00593 -0.07729,-0.043718 -0.158564,-0.1103381 z"
       id="path1550"
       transform="matrix(0.26458333,0,0,0.26458333,0.03381979,0.03496019)" />
    <path
       style="fill:#444444;fill-opacity:1;stroke:#444444;stroke-width:2.00000003;stroke-linecap:round;stroke-linejoin:round;stroke-dasharray:none;stroke-opacity:1"
       d="M 27.378291,2.5721324 C 25.848667,2.5008834 24.953533,2.4004712 23.113553,2.0937328 22.509638,1.9930556 22.314876,1.9537026 22.395398,1.9486245 c 0.120861,-0.00762 1.212384,0.034504 4.750873,0.183356 1.276107,0.053681 2.993568,0.1252618 3.81658,0.1590677 0.823013,0.033806 1.48924,0.067765 1.480505,0.075464 -0.02292,0.020199 -1.21498,0.1068829 -2.258735,0.1642491 -0.582505,0.032015 -2.424282,0.059167 -2.80633,0.041371 z"
       id="path1552"
       transform="matrix(0.26458333,0,0,0.26458333,0.03381979,0.03496019)" />
  </g>
</svg>
