<?xml version="1.0" encoding="UTF-8" standalone="no"?>
<!-- Created with Inkscape (http://www.inkscape.org/) -->

<svg
   width="640"
   height="39.823334"
   preserveAspectRatio="none"
   viewBox="0 0 169.33333 10.53659"
   version="1.1"
   id="svg2836"
   inkscape:export-filename="border_dark_1.svg"
   inkscape:export-xdpi="96"
   inkscape:export-ydpi="96"
   sodipodi:docname="header_element_long_2.svg"
   inkscape:version="1.2.2 (b0a8486541, 2022-12-01)"
   xmlns:inkscape="http://www.inkscape.org/namespaces/inkscape"
   xmlns:sodipodi="http://sodipodi.sourceforge.net/DTD/sodipodi-0.dtd"
   xmlns="http://www.w3.org/2000/svg"
   xmlns:svg="http://www.w3.org/2000/svg">
  <sodipodi:namedview
     id="namedview2838"
     pagecolor="#ffffff"
     bordercolor="#000000"
     borderopacity="0.25"
     inkscape:showpageshadow="2"
     inkscape:pageopacity="0.0"
     inkscape:pagecheckerboard="0"
     inkscape:deskcolor="#d1d1d1"
     inkscape:document-units="mm"
     showgrid="false"
     inkscape:zoom="8.495106"
     inkscape:cx="30.429285"
     inkscape:cy="19.305233"
     inkscape:window-width="1920"
     inkscape:window-height="1011"
     inkscape:window-x="0"
     inkscape:window-y="0"
     inkscape:window-maximized="1"
     inkscape:current-layer="layer1" />
  <defs
     id="defs2833" />
  <g
     inkscape:label="Layer 1"
     inkscape:groupmode="layer"
     id="layer1"
     transform="translate(-0.00874576,-0.03501333)">
    <path
       style="fill:#444444;fill-opacity:1;stroke:#444444;stroke-width:1.09086;stroke-linecap:round;stroke-linejoin:round;stroke-dasharray:none;stroke-opacity:1"
       d="M 25.924342,0.62406622 C 4.800631,0.63065295 2.1489539,0.13600106 1.0749484,1.4908798 0.34379723,2.3637119 0.65945133,5.9200248 0.61528806,8.3644171 0.72683171,10.797664 2.4785285,9.3807821 21.818629,9.5722097 61.278781,9.2004893 117.12313,9.4470176 143.43749,9.9830579 158.50834,9.621 167.80446,10.662841 168.58473,9.109743 168.7855,8.5964352 169.02069,4.8553147 168.54694,1.6331168 168.18725,0.67777807 166.05163,0.61155955 144.37081,0.58184333 98.649741,1.1782503 64.797554,0.66806588 25.924285,0.62406994 Z"
       id="path3322"
       sodipodi:nodetypes="cccccccccc" />
    <path
       style="fill:none;stroke:#444444;stroke-width:1.09086;stroke-linecap:round;stroke-linejoin:round;stroke-dasharray:none;stroke-opacity:1"
       d="M 24.384378,0.62914694 C 49.876304,1.260287 88.368578,1.64386 110.12923,0.87731727"
       id="path5166"
       sodipodi:nodetypes="cc" />
    <path
       style="fill:none;stroke:#444444;stroke-width:1.09086;stroke-linecap:round;stroke-linejoin:round;stroke-dasharray:none;stroke-opacity:1"
       d="m 135.36799,10.010648 c 22.16932,0.110104 32.6355,-2.5680104 33.29481,-2.9497781"
       id="path5220"
       sodipodi:nodetypes="cc" />
    <path
       style="fill:none;stroke:#444444;stroke-width:1.09086;stroke-linecap:round;stroke-linejoin:round;stroke-dasharray:none;stroke-opacity:1"
       d="M 90.400324,9.9301569 C 70.83029,9.667486 50.445522,9.6525851 29.156773,9.9293951"
       id="path5222"
       sodipodi:nodetypes="cc" />
    <path
       style="fill:none;stroke:#444444;stroke-width:1.09086;stroke-linecap:round;stroke-linejoin:round;stroke-dasharray:none;stroke-opacity:1"
       d="M 168.22879,4.8643053 C 166.49902,3.3912947 169.12773,3.5899368 164.35472,1.882041"
       id="path5224"
       sodipodi:nodetypes="cc" />
    <path
       style="fill:none;stroke:#444444;stroke-width:1.09086;stroke-linecap:round;stroke-linejoin:round;stroke-dasharray:none;stroke-opacity:1"
       d="M 9.2175344,1.0269675 C -0.82720451,2.4344692 2.5578889,3.8483944 1.2244544,5.2935185"
       id="path5226"
       sodipodi:nodetypes="cc" />
    <path
       style="fill:#444444;fill-opacity:1;stroke:#444444;stroke-width:1.45448;stroke-linecap:round;stroke-linejoin:round;stroke-dasharray:none"
       d="M 123.81319,9.8285325 C 119.524,9.8229512 108.95686,9.7955449 99.437589,9.7653122 92.77411,9.7441501 89.738864,9.7288961 88.068381,9.7081777 69.313964,9.4755753 49.935578,9.4802027 30.333029,9.7219647 24.707062,9.791351 20.863602,9.7885822 19.425051,9.7957411 -10.093654,9.9426389 5.6282515,8.9086008 3.3184841,7.9868344 2.5608099,7.6844667 2.4174233,7.4375778 2.7218388,6.9595071 2.8081881,6.8239008 2.9001411,6.3833616 2.926182,5.980531 2.9522228,5.5777007 3.030693,5.1273717 3.1005608,4.9798001 3.1704287,4.8322284 3.2606928,4.4634809 3.301148,4.160361 3.3416033,3.857241 3.431483,3.501546 3.500883,3.3699282 3.9623102,2.4948255 5.8012804,1.8702338 9.657976,1.2787202 10.430997,1.1601596 10.538981,1.1495959 11.485923,1.0998993 14.45659,0.94399528 18.29322,0.8473349 22.45447,0.82355672 c 1.438248,-0.008218 1.705644,-0.005364 3.366795,0.0359356 3.876424,0.0963765 10.655979,0.23111428 16.07046,0.31938598 21.897158,0.3569877 42.923598,0.4122193 57.982967,0.1523081 3.708368,-0.064004 8.289458,-0.1790131 10.595618,-0.2660075 0.56458,-0.021297 1.29394,-0.028743 3.55273,-0.036267 7.61991,-0.025382 18.37688,-0.10936406 26.25148,-0.20495137 4.37348,-0.0530882 4.90496,-0.056055 6.48492,-0.0362003 4.85588,0.0610217 9.30613,0.31455237 12.9666,0.73870827 0.92033,0.1066424 2.2188,0.2895787 2.84186,0.4003766 0.5659,0.1006347 2.31874,0.8160807 2.78933,1.138513 0.28635,0.1961919 0.45864,0.4303561 0.45884,0.623644 0,0.2468445 0.22593,0.6693005 0.51133,0.9572209 0.39832,0.4018661 0.74993,1.3566618 0.75131,2.0401908 l 0.001,0.3215437 -0.39259,0.1280602 c -0.512,0.1670079 -1.64395,0.432852 -2.76195,0.648662 -4.73919,0.9148109 -11.2699,1.5805298 -18.23592,1.8589119 -3.2869,0.1313533 -5.22914,0.1652149 -10.38017,0.1809699 -3.79989,0.011623 -5.23412,0.012119 -11.49553,0.00397 z"
       id="path1621"
       sodipodi:nodetypes="sssssssssssssssssssssssscsccssssss" />
    <path
       style="fill:#444444;fill-opacity:1;stroke:#444444;stroke-width:2.18171;stroke-linecap:round;stroke-linejoin:round;stroke-dasharray:none"
       d="m 71.088085,1.2720182 c -5.320493,-0.01833 -17.416129,0.1270656 -22.136282,0.055934 -0.174434,-0.032226 10.271392,-0.17795 11.417573,-0.1724944 15.143711,0.072283 24.302267,0.3844326 28.91267,0.3888492 2.106731,0.00202 2.135094,-0.2392792 1.023208,-0.2288102 -3.853118,0.036283 -13.445521,-0.023595 -19.217169,-0.043478 z"
       id="path1623"
       sodipodi:nodetypes="sccsss" />
    <path
       style="fill:#444444;fill-opacity:1;stroke:#444444;stroke-width:2.18171;stroke-linecap:round;stroke-linejoin:round;stroke-dasharray:none"
       d="m 154.94303,8.9718369 c 3.41929,-0.2801315 7.52967,-0.2264504 10.09046,-0.6672886 0.38274,-0.065888 0.71701,-0.1173712 0.74283,-0.1144065 0.0904,0.010382 -1.62589,-0.3345712 -2.2268,-0.1944827 -1.81778,0.4237674 -3.92148,0.5403722 -7.59384,0.737398 -0.78582,0.039184 -2.61874,0.3708308 -1.01265,0.2387798 z"
       id="path1625"
       sodipodi:nodetypes="cssscc" />
  </g>
</svg>
