<?xml version="1.0" encoding="UTF-8" standalone="no"?>
<!-- Created with Inkscape (http://www.inkscape.org/) -->

<svg
   width="79.759216"
   height="39.602112"
   preserveAspectRatio="none"
   viewBox="0 0 21.102959 10.478058"
   version="1.1"
   id="svg2836"
   inkscape:export-filename="border_dark_2.svg"
   inkscape:export-xdpi="96"
   inkscape:export-ydpi="96"
   sodipodi:docname="header_element_3 .svg"
   inkscape:version="1.2.2 (b0a8486541, 2022-12-01)"
   xmlns:inkscape="http://www.inkscape.org/namespaces/inkscape"
   xmlns:sodipodi="http://sodipodi.sourceforge.net/DTD/sodipodi-0.dtd"
   xmlns="http://www.w3.org/2000/svg"
   xmlns:svg="http://www.w3.org/2000/svg">
  <sodipodi:namedview
     id="namedview2838"
     pagecolor="#ffffff"
     bordercolor="#000000"
     borderopacity="0.25"
     inkscape:showpageshadow="2"
     inkscape:pageopacity="0.0"
     inkscape:pagecheckerboard="0"
     inkscape:deskcolor="#d1d1d1"
     inkscape:document-units="mm"
     showgrid="false"
     inkscape:zoom="17.013708"
     inkscape:cx="39.938384"
     inkscape:cy="19.807558"
     inkscape:window-width="1920"
     inkscape:window-height="1011"
     inkscape:window-x="0"
     inkscape:window-y="0"
     inkscape:window-maximized="1"
     inkscape:current-layer="layer1" />
  <defs
     id="defs2833" />
  <g
     inkscape:label="Layer 1"
     inkscape:groupmode="layer"
     id="layer1"
     transform="translate(-0.03223293,-0.06620737)">
    <path
       style="fill:none;stroke:#444444;stroke-width:0.396875;stroke-linecap:round;stroke-linejoin:round;stroke-dasharray:none;stroke-opacity:1"
       d="M 3.5750469,0.29103144 C 1.7183575,0.24289767 0.53489235,1.2643833 0.36165749,2.7355104 0.1886249,3.6762538 0.21163109,6.1223092 0.30663772,8.1895327 0.46075231,9.8137239 1.237395,10.385732 2.8228857,10.343684 7.7065989,10.266094 14.629077,10.304044 17.801745,10.331924 19.563861,10.301234 20.605673,9.5745833 20.795516,7.6896037 20.89137,7.122759 20.977359,5.1073602 20.916267,2.5044267 20.826739,1.0987205 20.21741,0.55097304 17.915157,0.41852584 15.178417,0.20123423 7.544027,0.27301266 3.5750469,0.29103144 Z"
       id="path3322"
       sodipodi:nodetypes="ccccccccc" />
    <path
       style="fill:none;stroke:#444444;stroke-width:0.396875;stroke-linecap:round;stroke-linejoin:round;stroke-dasharray:none;stroke-opacity:1"
       d="M 18.546617,0.48138119 C 14.45104,1.1960718 13.91698,0.88628327 10.919131,0.27186695"
       id="path5280"
       sodipodi:nodetypes="cc" />
    <path
       style="fill:none;stroke:#444444;stroke-width:0.396875;stroke-linecap:round;stroke-linejoin:round;stroke-dasharray:none;stroke-opacity:1"
       d="M 2.19868,10.333218 C 4.4869709,9.7700052 2.83506,9.3512572 10.887965,10.292175"
       id="path5282"
       sodipodi:nodetypes="cc" />
    <path
       style="fill:none;stroke:#444444;stroke-width:0.396875;stroke-linecap:round;stroke-linejoin:round;stroke-dasharray:none;stroke-opacity:1"
       d="m 18.710432,10.239677 c 1.180538,-0.08765 2.03967,-3.9964301 2.225717,-5.6031211"
       id="path5284"
       sodipodi:nodetypes="cc" />
    <path
       style="fill:none;stroke:#444444;stroke-width:0.396875;stroke-linecap:round;stroke-linejoin:round;stroke-dasharray:none;stroke-opacity:1"
       d="M 0.25662046,7.0419729 C 0.55117864,4.5771301 0.2577708,4.9753424 0.56005967,1.9826323"
       id="path5286"
       sodipodi:nodetypes="cc" />
    <path
       style="fill:none;stroke:#444444;stroke-width:0.396875;stroke-linecap:round;stroke-linejoin:round;stroke-dasharray:none;stroke-opacity:1"
       d="m 12.257026,10.293113 c 1.921141,-0.258849 3.413698,-0.3720305 4.557321,0.02072"
       id="path5288"
       sodipodi:nodetypes="cc" />
    <path
       style="fill:#444444;fill-opacity:1;stroke:#444444;stroke-width:2.00000003;stroke-linecap:round;stroke-linejoin:round;stroke-dasharray:none"
       d="m 63.88966,37.970567 c -0.210125,-0.0215 -0.661643,-0.120523 -1.003374,-0.220043 -1.832593,-0.53369 -3.68097,-0.74426 -6.490584,-0.739416 -2.599901,0.0045 -4.785653,0.171795 -8.71879,0.667397 L 45.83493,37.910608 H 43.61907 41.40321 L 38.643021,37.590821 C 31.169533,36.724967 25.910597,36.19809 21.776558,35.901023 c -0.606435,-0.04358 -2.086466,-0.07623 -3.467792,-0.0765 -3.275351,-6.41e-4 -3.754488,0.07597 -6.488513,1.037459 C 10.242869,37.416713 9.0001222,37.80831 8.4631752,37.91982 8.197634,37.974966 8.030222,37.968834 7.5334484,37.885768 4.3499662,37.353451 2.6697981,35.591595 2.0270827,32.111688 1.8581271,31.196898 1.7902888,30.323522 1.7036783,27.948053 1.6467588,26.386923 1.6512862,26.157024 1.7575008,25.214962 2.0562602,22.565141 2.1744325,20.553284 2.1752395,18.10305 2.1762507,15.032947 2.3113618,12.243428 2.6192953,8.9350206 2.7833463,7.1724728 2.8006672,7.1134822 3.4446507,6.1240653 4.9696733,3.781019 7.2762203,2.3704282 10.49154,1.8144727 11.489662,1.6418893 13.973808,1.6065195 28.682754,1.5554627 l 12.196048,-0.042334 2.527374,0.5346405 c 5.620082,1.1888716 6.961057,1.4314454 9.374794,1.6958384 1.378311,0.1509758 5.574048,0.1511724 7.229465,3.409e-4 2.501982,-0.2279687 5.070905,-0.5703782 8.316823,-1.1085432 l 1.82206,-0.3020927 0.881642,0.1261496 c 3.555057,0.5086748 5.526597,1.582312 6.401985,3.4863179 0.522455,1.1363631 0.676049,2.097049 0.740873,4.6339269 0.08554,3.347342 0.07077,6.513866 -0.03411,7.313558 -0.231948,1.768653 -0.704749,4.314091 -1.20712,6.498834 -1.608803,6.996485 -3.753521,11.901702 -5.702097,13.041372 -0.35295,0.206433 -1.58146,0.429141 -2.955852,0.535847 -0.82159,0.06379 -3.765698,0.06463 -4.384981,0.0013 z"
       id="path515"
       transform="matrix(0.26458333,0,0,0.26458333,0.03223293,0.06620737)" />
    <path
       style="fill:#444444;fill-opacity:1;stroke:#444444;stroke-width:2.00000003;stroke-linecap:round;stroke-linejoin:round;stroke-dasharray:none"
       d="M 54.162209,2.2902172 C 52.679865,2.1885162 49.378025,1.7474994 49.107461,1.61507 c -0.08337,-0.040807 6.416234,0.025089 8.875197,0.089982 4.24463,0.1120161 4.939383,0.1389281 4.698396,0.1819972 -0.330939,0.059146 -2.411079,0.2715847 -3.405321,0.3477761 -1.125736,0.086268 -4.181085,0.1193653 -5.113524,0.055392 z"
       id="path1071"
       transform="matrix(0.26458333,0,0,0.26458333,0.03223293,0.06620737)" />
    <path
       style="fill:#444444;fill-opacity:1;stroke:#444444;stroke-width:2.00000003;stroke-linecap:round;stroke-linejoin:round;stroke-dasharray:none"
       d="m 74.763245,35.596044 c 0,-0.02572 0.09049,-0.209763 0.201098,-0.408977 0.744087,-1.340208 1.772831,-4.082355 2.583486,-6.886358 0.177573,-0.61421 0.32459,-1.08812 0.326705,-1.053132 0.0082,0.135633 -0.29174,2.431262 -0.379504,2.904581 -0.34126,1.840445 -0.936906,3.302575 -1.82469,4.479055 -0.358489,0.475065 -0.907095,1.058589 -0.907095,0.964831 z"
       id="path1073"
       transform="matrix(0.26458333,0,0,0.26458333,0.03223293,0.06620737)" />
    <path
       style="fill:#444444;fill-opacity:1;stroke:#444444;stroke-width:3.00000004;stroke-linecap:round;stroke-linejoin:round;stroke-dasharray:none"
       d="m 13.400959,37.965561 c 0.08082,-0.03484 0.439667,-0.139102 0.797443,-0.231689 1.89803,-0.491182 4.24708,-0.527297 9.1945,-0.141359 3.915415,0.305433 3.962526,0.290457 -1.05797,0.336331 -2.473006,0.0226 -5.527896,0.05436 -6.788644,0.07058 -1.666965,0.02145 -2.252186,0.01221 -2.145329,-0.03386 z"
       id="path1075"
       transform="matrix(0.26458333,0,0,0.26458333,0.03223293,0.06620737)" />
  </g>
</svg>
